<?xml version="1.0" encoding="utf-8"?>
<!-- Generator: Adobe Illustrator 22.1.0, SVG Export Plug-In . SVG Version: 6.00 Build 0)  -->
<svg version="1.1" id="Layer_1" xmlns="http://www.w3.org/2000/svg" xmlns:xlink="http://www.w3.org/1999/xlink" x="0px" y="0px"
	 viewBox="0 0 77 47" style="enable-background:new 0 0 77 47;" xml:space="preserve">
<style type="text/css">
	.st0{opacity:0.35;fill:#6FBB7C;enable-background:new    ;}
	.st1{opacity:0.55;fill:#3658A4;enable-background:new    ;}
	.st2{fill:#4F8C32;stroke:#E5E7EB;stroke-width:2;}
	.st3{fill:#83A5D7;}
	.st4{fill:#FFDA45;}
	.st5{font-family:'Arial-BoldMT';}
	.st6{font-size:38.0086px;}
</style>
<path class="st0" d="M14.7,10.6h24.5c2.2,0,4.1,1.6,4.1,3.6V42c0,2-1.8,3.6-4.1,3.6H14.7c-2.2,0-4.1-1.6-4.1-3.6V14.3
	C10.6,12.2,12.5,10.6,14.7,10.6z"/>
<path class="st1" d="M18.6,6.9h23.9c2.2,0,4,1.6,4,3.5v26.3c0,1.9-1.8,3.5-4,3.5H18.6c-2.2,0-4-1.6-4-3.5V10.3
	C14.6,8.4,16.4,6.9,18.6,6.9z"/>
<path class="st2" d="M23.6,3h27.1c2.5,0,4.5,1.6,4.5,3.6v27.5c0,2-2,3.6-4.5,3.6H23.6c-2.5,0-4.5-1.6-4.5-3.6V6.6
	C19.1,4.6,21.1,3,23.6,3z"/>
<path class="st3" d="M23.6,3h26.5c2.4,0,4.4,1.6,4.4,3.6v27c0,2-2,3.6-4.4,3.6H23.6c-2.4,0-4.4-1.6-4.4-3.6v-27
	C19.2,4.6,21.2,3,23.6,3z"/>
<text transform="matrix(0.6589 0 0 1 21.1 32.9404)" class="st4 st5 st6">En</text>
</svg>
